inDegrees=no
num_controls=7
num_derivatives=13
num_iterations=89
num_multipliers=7
num_parameters=0
num_slacks=7
num_states=26
objective=0.453914
objective_accelerations=0.048004
objective_balance=0.000963
objective_effort=0.037650
objective_height=0.361322
objective_ligament=0.005975
solver_duration=1029.048513
status=Solve_Succeeded
success=true
DataType=double
version=3
OpenSimVersion=4.5
endheader
time	/jointset/ground_pelvis/pelvis_tilt/value	/jointset/ground_pelvis/pelvis_tx/value	/jointset/ground_pelvis/pelvis_ty/value	/jointset/hip_r/hip_flexion_r/value	/jointset/hip_r/hip_adduction_r/value	/jointset/hip_r/hip_rotation_r/value	/jointset/back/lumbar_extension/value	/jointset/patellofemoral_r/patellar_flexion_r/value	/jointset/knee_r/knee_flexion_r/value	/jointset/knee_r/knee_adduction_r/value	/jointset/knee_r/knee_rotation_r/value	/jointset/ankle_r/ankle_angle_r/value	/jointset/subtalar_r/subtalar_angle_r/value	/jointset/ground_pelvis/pelvis_tilt/speed	/jointset/ground_pelvis/pelvis_tx/speed	/jointset/ground_pelvis/pelvis_ty/speed	/jointset/hip_r/hip_flexion_r/speed	/jointset/hip_r/hip_adduction_r/speed	/jointset/hip_r/hip_rotation_r/speed	/jointset/back/lumbar_extension/speed	/jointset/patellofemoral_r/patellar_flexion_r/speed	/jointset/knee_r/knee_flexion_r/speed	/jointset/knee_r/knee_adduction_r/speed	/jointset/knee_r/knee_rotation_r/speed	/jointset/ankle_r/ankle_angle_r/speed	/jointset/subtalar_r/subtalar_angle_r/speed	/forceset/tau_hip_flexion_r	/forceset/tau_hip_adduction_r	/forceset/tau_hip_rotation_r	/forceset/tau_knee_flexion_r	/forceset/tau_ankle_angle_r	/forceset/tau_subtalar_angle_r	/forceset/tau_lumbar_extension	lambda_cid13_p0	lambda_cid14_p0	lambda_cid14_p1	lambda_cid14_p2	lambda_cid14_p3	lambda_cid14_p4	lambda_cid14_p5	/jointset/ground_pelvis/pelvis_tilt/accel	/jointset/ground_pelvis/pelvis_tx/accel	/jointset/ground_pelvis/pelvis_ty/accel	/jointset/hip_r/hip_flexion_r/accel	/jointset/hip_r/hip_adduction_r/accel	/jointset/hip_r/hip_rotation_r/accel	/jointset/back/lumbar_extension/accel	/jointset/patellofemoral_r/patellar_flexion_r/accel	/jointset/knee_r/knee_flexion_r/accel	/jointset/knee_r/knee_adduction_r/accel	/jointset/knee_r/knee_rotation_r/accel	/jointset/ankle_r/ankle_angle_r/accel	/jointset/subtalar_r/subtalar_angle_r/accel	gamma_cid13_p0	gamma_cid14_p0	gamma_cid14_p1	gamma_cid14_p2	gamma_cid14_p3	gamma_cid14_p4	gamma_cid14_p5
1.5	-0.0740798230347415	0.03302350634370735	0.8176979426763197	0.8000328588822065	-0.2360753699050666	-0.09623913275035628	-0.6257839254921589	0.9438558419724637	0.9438558419724559	0.0004155558711960757	0.1745309010010364	0.3020883967904587	0.1206600389590947	0.4417418689141134	0.2166167995614846	0.503238722815769	-1.978083816586133	0.04392250758332585	-0.3781877455827415	0.7948119359515825	-1.976167168077702	-1.976167168077713	0.2328596857447069	-2.003901243667304e-05	-0.5237212213026183	-0.124165732175834	-0.1535121026592422	0.003421962754766033	0.02597867890733957	-0.3139260474361193	0.02069265999963676	-0.01063949671245678	0.2094151201437626	-8.735654772786964	-36.07220992267582	-10.25542747223744	1.278733728342026	-3.146023465079293	-631.2013855897486	59.71082133177816	0.1380317559343268	0.5593738871038734	-0.4986681355389297	-0.9712926658546989	-0.01852611807129799	-0.04607186618758903	1.773725438711465	-1.323572203191093	-1.323572203191093	0.7939667857336523	-0.04428183289256398	-0.6187115549223562	-0.1640759864065915	7.260522991059401e-08	-9.479124992778163e-08	-2.109372089883785e-06	-3.275637475014331e-07	2.632911733975142e-07	1.545223422485278e-07	-1.388767280936278e-06
1.51	-0.06965588055529273	0.03521742234935697	0.8227043868545955	0.7802055570415052	-0.2356375640006253	-0.100025773603187	-0.6177484937833246	0.9240303234144682	0.9240303234144658	0.002782500175946065	0.1745307052126915	0.2968209037741177	0.1194097740136479	0.4429815720613315	0.2221407978978494	0.4979453380103321	-1.987118600737455	0.04362064105396782	-0.3791337080218428	0.8121660596562306	-1.988664757705124	-1.988664757705125	0.2405186006051575	-1.566989702400029e-05	-0.5296957925838388	-0.1258781515013712	-0.1465402730061794	0.001647955866474388	0.02571207762475365	-0.3099097308851704	0.02238379284112593	-0.01109448138942941	0.202947446042579	-9.787124570408272	-35.24653436304371	-10.16407274220307	1.099246687039291	-3.281573409611076	-626.486008394909	59.68346969730329	0.1071620878650052	0.5451286035864475	-0.5603690958998071	-0.8309004768316887	-0.03895918510038579	-0.1177821660808134	1.700003912502892	-1.172090945511383	-1.172090945509825	0.7499798108355289	0.02311737206164072	-0.5745366783980783	-0.1738662923448705	4.605470118533153e-08	-1.267547773826955e-07	-2.070643777861574e-06	-5.905357916820896e-07	2.754652328257437e-07	1.211165808221199e-07	-1.323172732217571e-06
1.52	-0.06522149654561933	0.03746582149770675	0.8276547580962462	0.7602956415218804	-0.2352033652144155	-0.1038216588270781	-0.6095427712222115	0.9040879812395988	0.9040879812396039	0.00522565882422816	0.1745306173331621	0.2914961236922296	0.118142576597603	0.4438301749585293	0.2275134281015149	0.4920241354907431	-1.994606552371214	0.04320108393531064	-0.3800366197933185	0.8288701064073409	-1.999531891452291	-1.999531891452282	0.2481025544509963	1.542750527330077e-06	-0.5351786344121069	-0.1275522262956127	-0.139568443353119	-0.0001260510218171252	0.02544547634219168	-0.3058934143342198	0.02407492568261557	-0.01154946606640462	0.196479771941394	-10.84651880349926	-34.42223212061965	-10.0715217741135	0.9179288155361397	-3.421482248577021	-621.7893258660683	59.67050007172968	0.05981170593028751	0.5291002605640086	-0.6242316783693369	-0.6619261623424553	-0.04206423593112821	-0.03746173266247477	1.643710048003931	-0.9974810271403088	-0.9974810271403083	0.7789745828112927	-0.04171312646482721	-0.5203656643318731	-0.1564070801474666	3.067963340006488e-08	-1.477438528702594e-07	-2.064791923521519e-06	-7.65688026648951e-07	2.84785566924555e-07	1.001607725072235e-07	-1.276358270639079e-06
1.53	-0.06078064462943594	0.03976712331192702	0.8325428353477823	0.7403186999003872	-0.2347738217336448	-0.1076265347136312	-0.601173339658829	0.884045187220231	0.8840451872202409	0.007743967844831509	0.1745307340820154	0.2861190389767869	0.1168590546340228	0.4442712950711437	0.2327143845871525	0.4854926617990802	-2.000513489745514	0.04269285491313444	-0.3809270339959875	0.8448958016901315	-2.008745566711309	-2.008745566711295	0.2555435473918282	1.820186735737555e-05	-0.5401523130415044	-0.1291374652025723	-0.132578400892698	-0.001952216638129174	0.02509772246796233	-0.3019996344041075	0.02573682830217361	-0.01201331036240747	0.189990060629782	-11.90561303158236	-33.62418737281029	-9.987180180335869	0.7376494362442435	-3.511595458973411	-617.3112905402062	59.6768085707911	0.02590368474764147	0.5107697072207488	-0.6823855079802705	-0.514859745456373	-0.05769099867714945	-0.1130548850115667	1.563938581581546	-0.8411139796383549	-0.8411139796377155	0.7240002464331896	0.02259141153272525	-0.4729135599151642	-0.1578131026011176	2.717849286354365e-08	-1.570725731425141e-07	-2.093871305468754e-06	-8.475317143261558e-07	2.910738178608594e-07	9.243303937330809e-08	-1.249497651647064e-06
1.54	-0.05633745320796084	0.04211946996393487	0.8373626418037184	0.7202907324610558	-0.2343498582957531	-0.1114399594664042	-0.5926472632799855	0.8639186958074019	0.863918695807417	0.0103361545141893	0.1745308646181918	0.2806948085555159	0.1155600341200475	0.4442980760165857	0.2377223956590306	0.4783699763707952	-2.004811715939125	0.04208507535830211	-0.3817463930363531	0.8601990694995246	-2.016271370144564	-2.016271370144546	0.2628780842012199	4.300215219956148e-06	-0.5446077755777617	-0.1306519363747692	-0.1255883584322786	-0.003778382254439486	0.02474996859373698	-0.2981058544739946	0.02739873092173335	-0.0124771546584066	0.183500349318169	-12.96106824195587	-32.82838948723776	-9.903038319856025	0.5571815464409897	-3.601423313796581	-612.8619458961324	59.69125764133084	-0.02305612750414804	0.4905111778120596	-0.7424740256937488	-0.3401839262046704	-0.06197434246234904	-0.02325070020178883	1.499224553324436	-0.6599066619879196	-0.65990666198792	0.7576833565232542	-0.04782528025831456	-0.4167224457038874	-0.1422535331949395	2.38954155902779e-08	-1.668593220141731e-07	-2.13066141316666e-06	-9.338586506168278e-07	2.981024531441456e-07	8.461758501252134e-08	-1.223322970887773e-06
1.55	-0.05189609524890476	0.04452088457586854	0.8421083359759736	0.7002278959707129	-0.2339323514193459	-0.1152615748505417	-0.5839718674483286	0.8437254600746442	0.8437254600746545	0.01300073046413557	0.1745308447918466	0.2752287137857524	0.1142464399586446	0.4439024866667724	0.2425229392313902	0.4706773381912271	-2.007479707938628	0.04140382016567981	-0.3825720632343625	0.8747475978936087	-2.022083062520964	-2.022083062520959	0.2700087981762558	-7.04201301742279e-06	-0.5485172611146686	-0.1320469887308523	-0.1185578461259105	-0.005649531563227356	0.02431577026962474	-0.2944490187474031	0.02922069576932259	-0.01297324863346343	0.1769962074362681	-14.00848018026368	-32.00145875616496	-9.831796471898496	0.383732528953759	-3.708143135662768	-608.6775286166999	59.72475995666998	-0.05848882896331378	0.4692498949754459	-0.7963722368453316	-0.1887534434703546	-0.07339214169925506	-0.1115060169564021	1.412792141730506	-0.497897278422367	-0.4978972784243808	0.6861879861691345	0.02214086634335481	-0.3639155265776484	-0.1356173780908705	2.086358512032821e-08	-1.771737994894937e-07	-2.176335617925123e-06	-1.025351069005625e-06	3.059841399576497e-07	7.670106054251331e-08	-1.197938610266188e-06
1.56	-0.04746082888139475	0.04696918941313111	0.8467743610618816	0.680146650239046	-0.2335220953016675	-0.1190913031041342	-0.5751549613008748	0.8234828880675307	0.8234828880675378	0.01573569806746765	0.1745306974553096	0.2697263533768412	0.1129193980154261	0.4430797577072267	0.2471004407248096	0.4624361591013793	-2.008493564204019	0.04063492361157062	-0.3833689669266064	0.8885011326589034	-2.026138625015615	-2.026138625015623	0.2769564148783049	-2.120182326249954e-05	-0.5518609034073186	-0.1333414927379706	-0.1115273338195445	-0.007520680872015286	0.02388157194552852	-0.2907921830208103	0.03104266061691278	-0.01346934260852027	0.1704920655543657	-15.0445343688848	-31.17731760098878	-9.761792454762826	0.2113377875628227	-3.810915555045551	-604.5279614077638	59.75953924260805	-0.1084840494505885	0.4459027620239662	-0.8521822077497248	-0.009356779382051551	-0.07950261475972698	-0.01749739904868203	1.340225827566593	-0.3086806856379337	-0.3086806856379334	0.7210639019259029	-0.0483887966598486	-0.3035537968525925	-0.1221438634019803	1.748063408805444e-08	-1.864471128024173e-07	-2.212974655317726e-06	-1.115876956932232e-06	3.117563581277377e-07	7.081163763282847e-08	-1.163249524788465e-06
1.57	-0.04303595602306427	0.049462069810849	0.8513553196251576	0.6600636344798546	-0.2331198057412794	-0.1229291457153335	-0.5662046757743169	0.8032085585975278	0.8032085585975306	0.01853880213858107	0.1745304763922632	0.2641934077273883	0.1115801550947416	0.4418201264008417	0.2514294933529356	0.4536721366162956	-2.007820332317564	0.03981500445420419	-0.3841980123755446	0.9014057447858043	-2.028425868894231	-2.028425868894246	0.2836227050638155	-2.013172871196685e-05	-0.5546328892702074	-0.1344815464470427	-0.1044816838643781	-0.009340451783396288	0.02334683696684036	-0.2873000338405804	0.03284587118803391	-0.01399883799919655	0.1639824712652105	-16.06674272745974	-30.38419103417647	-9.715190230381214	0.04663099955230918	-3.852957678251658	-600.6887630155069	59.78722584552131	-0.1459325424794534	0.4195480326220411	-0.9010117046992943	0.1490208539971493	-0.08479495713432444	-0.1153757106864804	1.243044725240967	-0.1435385170459581	-0.1435385170470707	0.6328043902561826	0.02450479860816826	-0.2496600728933717	-0.1066062449891327	1.365878235287558e-08	-1.944189709123446e-07	-2.238319733503005e-06	-1.205194681781103e-06	3.148917404935553e-07	6.745609167354761e-08	-1.116929533240572e-06
